<mxfile host="app.diagrams.net" modified="2023-11-22T07:55:33.818Z" agent="Mozilla/5.0 (Macintosh; Intel Mac OS X 10_15_7) AppleWebKit/537.36 (KHTML, like Gecko) Chrome/119.0.0.0 Safari/537.36" etag="6lHRcvMBKFhC1vFniLeJ" version="22.1.3" type="github">
  <diagram id="C5RBs43oDa-KdzZeNtuy" name="Page-1">
    <mxGraphModel dx="1434" dy="721" grid="1" gridSize="10" guides="1" tooltips="1" connect="1" arrows="1" fold="1" page="1" pageScale="1" pageWidth="827" pageHeight="1169" math="0" shadow="0">
      <root>
        <mxCell id="WIyWlLk6GJQsqaUBKTNV-0" />
        <mxCell id="WIyWlLk6GJQsqaUBKTNV-1" parent="WIyWlLk6GJQsqaUBKTNV-0" />
        <mxCell id="Gi21wtCxXkDASx48aUL7-0" style="edgeStyle=orthogonalEdgeStyle;rounded=0;orthogonalLoop=1;jettySize=auto;html=1;entryX=0.5;entryY=0;entryDx=0;entryDy=0;" edge="1" parent="WIyWlLk6GJQsqaUBKTNV-1" source="Gi21wtCxXkDASx48aUL7-1" target="Gi21wtCxXkDASx48aUL7-35">
          <mxGeometry relative="1" as="geometry">
            <mxPoint x="370" y="1500" as="targetPoint" />
          </mxGeometry>
        </mxCell>
        <mxCell id="Gi21wtCxXkDASx48aUL7-1" value="" style="rounded=0;whiteSpace=wrap;html=1;textOpacity=1;labelBorderColor=#FF6666;labelBackgroundColor=#FF6666;strokeColor=#FF6666;" vertex="1" parent="WIyWlLk6GJQsqaUBKTNV-1">
          <mxGeometry x="60" y="240" width="580" height="1190" as="geometry" />
        </mxCell>
        <mxCell id="Gi21wtCxXkDASx48aUL7-2" value="" style="edgeStyle=orthogonalEdgeStyle;rounded=0;orthogonalLoop=1;jettySize=auto;html=1;" edge="1" parent="WIyWlLk6GJQsqaUBKTNV-1" source="Gi21wtCxXkDASx48aUL7-3" target="Gi21wtCxXkDASx48aUL7-12">
          <mxGeometry relative="1" as="geometry" />
        </mxCell>
        <mxCell id="Gi21wtCxXkDASx48aUL7-3" value="脚本执行" style="rounded=1;whiteSpace=wrap;html=1;fontSize=12;glass=0;strokeWidth=1;shadow=0;" vertex="1" parent="WIyWlLk6GJQsqaUBKTNV-1">
          <mxGeometry x="160" y="80" width="120" height="40" as="geometry" />
        </mxCell>
        <mxCell id="Gi21wtCxXkDASx48aUL7-4" style="edgeStyle=orthogonalEdgeStyle;rounded=0;orthogonalLoop=1;jettySize=auto;html=1;entryX=0;entryY=0.5;entryDx=0;entryDy=0;" edge="1" parent="WIyWlLk6GJQsqaUBKTNV-1" source="Gi21wtCxXkDASx48aUL7-8" target="Gi21wtCxXkDASx48aUL7-14">
          <mxGeometry relative="1" as="geometry" />
        </mxCell>
        <mxCell id="Gi21wtCxXkDASx48aUL7-5" value="no" style="edgeLabel;html=1;align=center;verticalAlign=middle;resizable=0;points=[];" vertex="1" connectable="0" parent="Gi21wtCxXkDASx48aUL7-4">
          <mxGeometry x="-0.203" y="-1" relative="1" as="geometry">
            <mxPoint as="offset" />
          </mxGeometry>
        </mxCell>
        <mxCell id="Gi21wtCxXkDASx48aUL7-6" style="edgeStyle=orthogonalEdgeStyle;rounded=0;orthogonalLoop=1;jettySize=auto;html=1;entryX=0.5;entryY=0;entryDx=0;entryDy=0;" edge="1" parent="WIyWlLk6GJQsqaUBKTNV-1" source="Gi21wtCxXkDASx48aUL7-8" target="Gi21wtCxXkDASx48aUL7-17">
          <mxGeometry relative="1" as="geometry">
            <mxPoint x="226.25" y="520" as="targetPoint" />
          </mxGeometry>
        </mxCell>
        <mxCell id="Gi21wtCxXkDASx48aUL7-7" value="yes" style="edgeLabel;html=1;align=center;verticalAlign=middle;resizable=0;points=[];" vertex="1" connectable="0" parent="Gi21wtCxXkDASx48aUL7-6">
          <mxGeometry x="-0.075" y="1" relative="1" as="geometry">
            <mxPoint as="offset" />
          </mxGeometry>
        </mxCell>
        <mxCell id="Gi21wtCxXkDASx48aUL7-8" value="策略是否存在" style="rhombus;whiteSpace=wrap;html=1;shadow=0;fontFamily=Helvetica;fontSize=12;align=center;strokeWidth=1;spacing=6;spacingTop=-4;" vertex="1" parent="WIyWlLk6GJQsqaUBKTNV-1">
          <mxGeometry x="136.25" y="420" width="167.5" height="60" as="geometry" />
        </mxCell>
        <mxCell id="Gi21wtCxXkDASx48aUL7-9" style="edgeStyle=orthogonalEdgeStyle;rounded=0;orthogonalLoop=1;jettySize=auto;html=1;" edge="1" parent="WIyWlLk6GJQsqaUBKTNV-1" source="Gi21wtCxXkDASx48aUL7-10" target="Gi21wtCxXkDASx48aUL7-37">
          <mxGeometry relative="1" as="geometry" />
        </mxCell>
        <mxCell id="Gi21wtCxXkDASx48aUL7-10" value="循环实例数据" style="rounded=1;whiteSpace=wrap;html=1;fontSize=12;glass=0;strokeWidth=1;shadow=0;" vertex="1" parent="WIyWlLk6GJQsqaUBKTNV-1">
          <mxGeometry x="160" y="250" width="120" height="40" as="geometry" />
        </mxCell>
        <mxCell id="Gi21wtCxXkDASx48aUL7-11" value="" style="edgeStyle=orthogonalEdgeStyle;rounded=0;orthogonalLoop=1;jettySize=auto;html=1;" edge="1" parent="WIyWlLk6GJQsqaUBKTNV-1" source="Gi21wtCxXkDASx48aUL7-12" target="Gi21wtCxXkDASx48aUL7-10">
          <mxGeometry relative="1" as="geometry" />
        </mxCell>
        <mxCell id="Gi21wtCxXkDASx48aUL7-12" value="读取策略配置csv文件、获取实例数据" style="rounded=1;whiteSpace=wrap;html=1;fontSize=12;glass=0;strokeWidth=1;shadow=0;" vertex="1" parent="WIyWlLk6GJQsqaUBKTNV-1">
          <mxGeometry x="160" y="170" width="120" height="40" as="geometry" />
        </mxCell>
        <mxCell id="Gi21wtCxXkDASx48aUL7-13" style="edgeStyle=orthogonalEdgeStyle;rounded=0;orthogonalLoop=1;jettySize=auto;html=1;entryX=0;entryY=0.5;entryDx=0;entryDy=0;" edge="1" parent="WIyWlLk6GJQsqaUBKTNV-1" source="Gi21wtCxXkDASx48aUL7-14" target="Gi21wtCxXkDASx48aUL7-20">
          <mxGeometry relative="1" as="geometry" />
        </mxCell>
        <mxCell id="Gi21wtCxXkDASx48aUL7-14" value="备份策略异常数量+1" style="rounded=1;whiteSpace=wrap;html=1;fontSize=12;glass=0;strokeWidth=1;shadow=0;" vertex="1" parent="WIyWlLk6GJQsqaUBKTNV-1">
          <mxGeometry x="410" y="430" width="120" height="40" as="geometry" />
        </mxCell>
        <mxCell id="Gi21wtCxXkDASx48aUL7-15" value="no" style="edgeStyle=orthogonalEdgeStyle;rounded=0;orthogonalLoop=1;jettySize=auto;html=1;exitX=1;exitY=0.5;exitDx=0;exitDy=0;" edge="1" parent="WIyWlLk6GJQsqaUBKTNV-1" source="Gi21wtCxXkDASx48aUL7-17" target="Gi21wtCxXkDASx48aUL7-19">
          <mxGeometry relative="1" as="geometry" />
        </mxCell>
        <mxCell id="Gi21wtCxXkDASx48aUL7-16" style="edgeStyle=orthogonalEdgeStyle;rounded=0;orthogonalLoop=1;jettySize=auto;html=1;" edge="1" parent="WIyWlLk6GJQsqaUBKTNV-1" source="Gi21wtCxXkDASx48aUL7-17" target="Gi21wtCxXkDASx48aUL7-41">
          <mxGeometry relative="1" as="geometry" />
        </mxCell>
        <mxCell id="Gi21wtCxXkDASx48aUL7-17" value="检查策略配置是否和环境一致" style="rhombus;whiteSpace=wrap;html=1;shadow=0;fontFamily=Helvetica;fontSize=12;align=center;strokeWidth=1;spacing=6;spacingTop=-4;" vertex="1" parent="WIyWlLk6GJQsqaUBKTNV-1">
          <mxGeometry x="130" y="585" width="180" height="100" as="geometry" />
        </mxCell>
        <mxCell id="Gi21wtCxXkDASx48aUL7-18" style="edgeStyle=orthogonalEdgeStyle;rounded=0;orthogonalLoop=1;jettySize=auto;html=1;entryX=0;entryY=0.5;entryDx=0;entryDy=0;" edge="1" parent="WIyWlLk6GJQsqaUBKTNV-1" source="Gi21wtCxXkDASx48aUL7-19" target="Gi21wtCxXkDASx48aUL7-20">
          <mxGeometry relative="1" as="geometry" />
        </mxCell>
        <mxCell id="Gi21wtCxXkDASx48aUL7-19" value="备份策略异常数量+1" style="rounded=1;whiteSpace=wrap;html=1;fontSize=12;glass=0;strokeWidth=1;shadow=0;" vertex="1" parent="WIyWlLk6GJQsqaUBKTNV-1">
          <mxGeometry x="410" y="615" width="120" height="40" as="geometry" />
        </mxCell>
        <mxCell id="Gi21wtCxXkDASx48aUL7-20" value="信息写入附件" style="rounded=1;whiteSpace=wrap;html=1;" vertex="1" parent="WIyWlLk6GJQsqaUBKTNV-1">
          <mxGeometry x="730" y="835" width="20" height="510" as="geometry" />
        </mxCell>
        <mxCell id="Gi21wtCxXkDASx48aUL7-21" style="edgeStyle=orthogonalEdgeStyle;rounded=0;orthogonalLoop=1;jettySize=auto;html=1;exitX=0.5;exitY=1;exitDx=0;exitDy=0;" edge="1" parent="WIyWlLk6GJQsqaUBKTNV-1" target="Gi21wtCxXkDASx48aUL7-25">
          <mxGeometry relative="1" as="geometry">
            <mxPoint x="220" y="980" as="sourcePoint" />
          </mxGeometry>
        </mxCell>
        <mxCell id="Gi21wtCxXkDASx48aUL7-22" style="edgeStyle=orthogonalEdgeStyle;rounded=0;orthogonalLoop=1;jettySize=auto;html=1;exitX=1;exitY=0.5;exitDx=0;exitDy=0;" edge="1" parent="WIyWlLk6GJQsqaUBKTNV-1" source="Gi21wtCxXkDASx48aUL7-25" target="Gi21wtCxXkDASx48aUL7-27">
          <mxGeometry relative="1" as="geometry" />
        </mxCell>
        <mxCell id="Gi21wtCxXkDASx48aUL7-23" value="no" style="edgeLabel;html=1;align=center;verticalAlign=middle;resizable=0;points=[];" vertex="1" connectable="0" parent="Gi21wtCxXkDASx48aUL7-22">
          <mxGeometry y="-3" relative="1" as="geometry">
            <mxPoint as="offset" />
          </mxGeometry>
        </mxCell>
        <mxCell id="Gi21wtCxXkDASx48aUL7-24" style="edgeStyle=orthogonalEdgeStyle;rounded=0;orthogonalLoop=1;jettySize=auto;html=1;exitX=0.5;exitY=1;exitDx=0;exitDy=0;" edge="1" parent="WIyWlLk6GJQsqaUBKTNV-1" source="Gi21wtCxXkDASx48aUL7-25" target="Gi21wtCxXkDASx48aUL7-31">
          <mxGeometry relative="1" as="geometry">
            <mxPoint x="220" y="1180" as="targetPoint" />
          </mxGeometry>
        </mxCell>
        <mxCell id="Gi21wtCxXkDASx48aUL7-25" value="备份是否生成" style="rhombus;whiteSpace=wrap;html=1;shadow=0;fontFamily=Helvetica;fontSize=12;align=center;strokeWidth=1;spacing=6;spacingTop=-4;" vertex="1" parent="WIyWlLk6GJQsqaUBKTNV-1">
          <mxGeometry x="130" y="890" width="180" height="100" as="geometry" />
        </mxCell>
        <mxCell id="Gi21wtCxXkDASx48aUL7-26" value="" style="edgeStyle=orthogonalEdgeStyle;rounded=0;orthogonalLoop=1;jettySize=auto;html=1;" edge="1" parent="WIyWlLk6GJQsqaUBKTNV-1" source="Gi21wtCxXkDASx48aUL7-27" target="Gi21wtCxXkDASx48aUL7-20">
          <mxGeometry relative="1" as="geometry" />
        </mxCell>
        <mxCell id="Gi21wtCxXkDASx48aUL7-27" value="备份缺失数+1" style="rounded=1;whiteSpace=wrap;html=1;fontSize=12;glass=0;strokeWidth=1;shadow=0;" vertex="1" parent="WIyWlLk6GJQsqaUBKTNV-1">
          <mxGeometry x="400" y="920" width="130" height="40" as="geometry" />
        </mxCell>
        <mxCell id="Gi21wtCxXkDASx48aUL7-28" value="进行中" style="edgeStyle=orthogonalEdgeStyle;rounded=0;orthogonalLoop=1;jettySize=auto;html=1;exitX=1;exitY=0.5;exitDx=0;exitDy=0;" edge="1" parent="WIyWlLk6GJQsqaUBKTNV-1" source="Gi21wtCxXkDASx48aUL7-31" target="Gi21wtCxXkDASx48aUL7-33">
          <mxGeometry relative="1" as="geometry" />
        </mxCell>
        <mxCell id="Gi21wtCxXkDASx48aUL7-29" style="edgeStyle=orthogonalEdgeStyle;rounded=0;orthogonalLoop=1;jettySize=auto;html=1;" edge="1" parent="WIyWlLk6GJQsqaUBKTNV-1" source="Gi21wtCxXkDASx48aUL7-31" target="Gi21wtCxXkDASx48aUL7-47">
          <mxGeometry relative="1" as="geometry" />
        </mxCell>
        <mxCell id="Gi21wtCxXkDASx48aUL7-30" value="已完成" style="edgeLabel;html=1;align=center;verticalAlign=middle;resizable=0;points=[];" vertex="1" connectable="0" parent="Gi21wtCxXkDASx48aUL7-29">
          <mxGeometry x="-0.4" y="-1" relative="1" as="geometry">
            <mxPoint as="offset" />
          </mxGeometry>
        </mxCell>
        <mxCell id="Gi21wtCxXkDASx48aUL7-31" value="备份状态判断" style="rhombus;whiteSpace=wrap;html=1;shadow=0;fontFamily=Helvetica;fontSize=12;align=center;strokeWidth=1;spacing=6;spacingTop=-4;" vertex="1" parent="WIyWlLk6GJQsqaUBKTNV-1">
          <mxGeometry x="130" y="1040" width="180" height="100" as="geometry" />
        </mxCell>
        <mxCell id="Gi21wtCxXkDASx48aUL7-32" style="edgeStyle=orthogonalEdgeStyle;rounded=0;orthogonalLoop=1;jettySize=auto;html=1;exitX=1;exitY=0.5;exitDx=0;exitDy=0;entryX=0;entryY=0.5;entryDx=0;entryDy=0;" edge="1" parent="WIyWlLk6GJQsqaUBKTNV-1" source="Gi21wtCxXkDASx48aUL7-33" target="Gi21wtCxXkDASx48aUL7-20">
          <mxGeometry relative="1" as="geometry" />
        </mxCell>
        <mxCell id="Gi21wtCxXkDASx48aUL7-33" value="进行中数量+1" style="rounded=1;whiteSpace=wrap;html=1;fontSize=12;glass=0;strokeWidth=1;shadow=0;" vertex="1" parent="WIyWlLk6GJQsqaUBKTNV-1">
          <mxGeometry x="405" y="1070" width="130" height="40" as="geometry" />
        </mxCell>
        <mxCell id="Gi21wtCxXkDASx48aUL7-34" value="循环判断逻辑" style="rounded=1;whiteSpace=wrap;html=1;fillColor=#f8cecc;strokeColor=#b85450;" vertex="1" parent="WIyWlLk6GJQsqaUBKTNV-1">
          <mxGeometry x="490" y="270" width="120" height="60" as="geometry" />
        </mxCell>
        <mxCell id="Gi21wtCxXkDASx48aUL7-35" value="1.统计【备份检童恐盘总数，策略配置异常，快照缺失。快照未完成，快照完成数】数据添加到汇总sheet中&lt;br&gt;2.备份策略导常，备份缺失，备份未完成，添加到邮件正文&lt;br&gt;3.各项数据汇总至对应的附件sheet中【备份情况汇总表，策略配置异常，快照完成，快照缺失，快照未完成，特殊策略】&lt;br&gt;4.添加邮件附件，发送邮件给配置文件中配置的收件人" style="rounded=0;whiteSpace=wrap;html=1;align=left;" vertex="1" parent="WIyWlLk6GJQsqaUBKTNV-1">
          <mxGeometry x="65" y="1480" width="570" height="90" as="geometry" />
        </mxCell>
        <mxCell id="Gi21wtCxXkDASx48aUL7-36" style="edgeStyle=orthogonalEdgeStyle;rounded=0;orthogonalLoop=1;jettySize=auto;html=1;entryX=0.5;entryY=0;entryDx=0;entryDy=0;" edge="1" parent="WIyWlLk6GJQsqaUBKTNV-1" source="Gi21wtCxXkDASx48aUL7-37" target="Gi21wtCxXkDASx48aUL7-8">
          <mxGeometry relative="1" as="geometry" />
        </mxCell>
        <mxCell id="Gi21wtCxXkDASx48aUL7-37" value="根据实例id获取策略" style="rounded=1;whiteSpace=wrap;html=1;fontSize=12;glass=0;strokeWidth=1;shadow=0;" vertex="1" parent="WIyWlLk6GJQsqaUBKTNV-1">
          <mxGeometry x="160" y="340" width="120" height="40" as="geometry" />
        </mxCell>
        <mxCell id="Gi21wtCxXkDASx48aUL7-38" style="edgeStyle=orthogonalEdgeStyle;rounded=0;orthogonalLoop=1;jettySize=auto;html=1;entryX=0;entryY=0.5;entryDx=0;entryDy=0;" edge="1" parent="WIyWlLk6GJQsqaUBKTNV-1" source="Gi21wtCxXkDASx48aUL7-41" target="Gi21wtCxXkDASx48aUL7-42">
          <mxGeometry relative="1" as="geometry" />
        </mxCell>
        <mxCell id="Gi21wtCxXkDASx48aUL7-39" value="no" style="edgeLabel;html=1;align=center;verticalAlign=middle;resizable=0;points=[];" vertex="1" connectable="0" parent="Gi21wtCxXkDASx48aUL7-38">
          <mxGeometry x="-0.1" y="1" relative="1" as="geometry">
            <mxPoint as="offset" />
          </mxGeometry>
        </mxCell>
        <mxCell id="Gi21wtCxXkDASx48aUL7-40" style="edgeStyle=orthogonalEdgeStyle;rounded=0;orthogonalLoop=1;jettySize=auto;html=1;entryX=0.5;entryY=0;entryDx=0;entryDy=0;" edge="1" parent="WIyWlLk6GJQsqaUBKTNV-1" source="Gi21wtCxXkDASx48aUL7-41" target="Gi21wtCxXkDASx48aUL7-25">
          <mxGeometry relative="1" as="geometry" />
        </mxCell>
        <mxCell id="Gi21wtCxXkDASx48aUL7-41" value="实例今天是否需要进行备份检查" style="rhombus;whiteSpace=wrap;html=1;shadow=0;fontFamily=Helvetica;fontSize=12;align=center;strokeWidth=1;spacing=6;spacingTop=-4;" vertex="1" parent="WIyWlLk6GJQsqaUBKTNV-1">
          <mxGeometry x="130" y="730" width="180" height="100" as="geometry" />
        </mxCell>
        <mxCell id="Gi21wtCxXkDASx48aUL7-42" value="跳过" style="rounded=1;whiteSpace=wrap;html=1;fontSize=12;glass=0;strokeWidth=1;shadow=0;" vertex="1" parent="WIyWlLk6GJQsqaUBKTNV-1">
          <mxGeometry x="370" y="760" width="120" height="40" as="geometry" />
        </mxCell>
        <mxCell id="Gi21wtCxXkDASx48aUL7-43" style="edgeStyle=orthogonalEdgeStyle;rounded=0;orthogonalLoop=1;jettySize=auto;html=1;entryX=0;entryY=0.5;entryDx=0;entryDy=0;" edge="1" parent="WIyWlLk6GJQsqaUBKTNV-1" source="Gi21wtCxXkDASx48aUL7-47" target="Gi21wtCxXkDASx48aUL7-49">
          <mxGeometry relative="1" as="geometry" />
        </mxCell>
        <mxCell id="Gi21wtCxXkDASx48aUL7-44" value="no" style="edgeLabel;html=1;align=center;verticalAlign=middle;resizable=0;points=[];" vertex="1" connectable="0" parent="Gi21wtCxXkDASx48aUL7-43">
          <mxGeometry x="-0.1333" relative="1" as="geometry">
            <mxPoint as="offset" />
          </mxGeometry>
        </mxCell>
        <mxCell id="Gi21wtCxXkDASx48aUL7-45" style="edgeStyle=orthogonalEdgeStyle;rounded=0;orthogonalLoop=1;jettySize=auto;html=1;entryX=0;entryY=0.5;entryDx=0;entryDy=0;" edge="1" parent="WIyWlLk6GJQsqaUBKTNV-1" source="Gi21wtCxXkDASx48aUL7-47" target="Gi21wtCxXkDASx48aUL7-51">
          <mxGeometry relative="1" as="geometry">
            <Array as="points">
              <mxPoint x="220" y="1340" />
            </Array>
          </mxGeometry>
        </mxCell>
        <mxCell id="Gi21wtCxXkDASx48aUL7-46" value="yes" style="edgeLabel;html=1;align=center;verticalAlign=middle;resizable=0;points=[];" vertex="1" connectable="0" parent="Gi21wtCxXkDASx48aUL7-45">
          <mxGeometry x="-0.1083" y="-2" relative="1" as="geometry">
            <mxPoint as="offset" />
          </mxGeometry>
        </mxCell>
        <mxCell id="Gi21wtCxXkDASx48aUL7-47" value="备份完成时间到现在是否大于24h" style="rhombus;whiteSpace=wrap;html=1;shadow=0;fontFamily=Helvetica;fontSize=12;align=center;strokeWidth=1;spacing=6;spacingTop=-4;" vertex="1" parent="WIyWlLk6GJQsqaUBKTNV-1">
          <mxGeometry x="130" y="1200" width="180" height="100" as="geometry" />
        </mxCell>
        <mxCell id="Gi21wtCxXkDASx48aUL7-48" style="edgeStyle=orthogonalEdgeStyle;rounded=0;orthogonalLoop=1;jettySize=auto;html=1;entryX=0;entryY=0.5;entryDx=0;entryDy=0;" edge="1" parent="WIyWlLk6GJQsqaUBKTNV-1" source="Gi21wtCxXkDASx48aUL7-49" target="Gi21wtCxXkDASx48aUL7-20">
          <mxGeometry relative="1" as="geometry" />
        </mxCell>
        <mxCell id="Gi21wtCxXkDASx48aUL7-49" value="备份缺失数+1" style="rounded=1;whiteSpace=wrap;html=1;fontSize=12;glass=0;strokeWidth=1;shadow=0;" vertex="1" parent="WIyWlLk6GJQsqaUBKTNV-1">
          <mxGeometry x="400" y="1230" width="130" height="40" as="geometry" />
        </mxCell>
        <mxCell id="Gi21wtCxXkDASx48aUL7-50" style="edgeStyle=orthogonalEdgeStyle;rounded=0;orthogonalLoop=1;jettySize=auto;html=1;entryX=0;entryY=0.5;entryDx=0;entryDy=0;" edge="1" parent="WIyWlLk6GJQsqaUBKTNV-1" source="Gi21wtCxXkDASx48aUL7-51" target="Gi21wtCxXkDASx48aUL7-20">
          <mxGeometry relative="1" as="geometry" />
        </mxCell>
        <mxCell id="Gi21wtCxXkDASx48aUL7-51" value="备份缺失数+1" style="rounded=1;whiteSpace=wrap;html=1;fontSize=12;glass=0;strokeWidth=1;shadow=0;" vertex="1" parent="WIyWlLk6GJQsqaUBKTNV-1">
          <mxGeometry x="400" y="1320" width="130" height="40" as="geometry" />
        </mxCell>
      </root>
    </mxGraphModel>
  </diagram>
</mxfile>
